<svg xmlns="http://www.w3.org/2000/svg" viewBox="0 0 256 256">
  <defs>
    <linearGradient id="bg" x1="0" y1="0" x2="1" y2="1">
      <stop offset="0" stop-color="#101B2E"/>
      <stop offset="1" stop-color="#0A0E17"/>
    </linearGradient>
    <linearGradient id="accent" x1="0" y1="0" x2="1" y2="1">
      <stop offset="0" stop-color="#22D3EE"/>
      <stop offset="1" stop-color="#6366F1"/>
    </linearGradient>
    <radialGradient id="glow" cx="0.5" cy="0.42" r="0.6">
      <stop offset="0" stop-color="#22D3EE" stop-opacity="0.35"/>
      <stop offset="1" stop-color="#22D3EE" stop-opacity="0"/>
    </radialGradient>
  </defs>

  <rect width="256" height="256" rx="58" fill="url(#bg)"/>
  <rect x="3" y="3" width="250" height="250" rx="55" fill="none" stroke="url(#accent)" stroke-width="3" stroke-opacity="0.6"/>
  <circle cx="128" cy="116" r="92" fill="url(#glow)"/>

  <!-- Shield -->
  <g transform="translate(56,44) scale(6)" fill="none" stroke="url(#accent)" stroke-width="1.7" stroke-linecap="round" stroke-linejoin="round">
    <path d="M12 3l7 3v5c0 4.5-3 7.8-7 9-4-1.2-7-4.5-7-9V6z"/>
  </g>

  <!-- Duck locked inside the shield -->
  <g transform="translate(96,96) scale(2.9)">
    <path d="M15.5 7.2a3 3 0 10-4.7 3.6c-2.8.4-5 2-5.6 4.6-.2.9.4 1.6 1.3 1.6h7.2c3 0 5.4-2.1 5.4-5.1 0-1.6-.7-3-1.8-3.9z" fill="#EAF1FB"/>
    <path d="M15.8 7.2l3.4-.7-2 2.4z" fill="#FBBF24"/>
    <circle cx="13.1" cy="6.6" r="0.9" fill="#0B1020"/>
  </g>

  <text x="128" y="232" text-anchor="middle" font-family="Helvetica Neue, Helvetica, Arial, sans-serif" font-size="22" font-weight="800" letter-spacing="1" fill="#EAF1FB">DUCKHOUND</text>
</svg>
